<?xml version="1.0" encoding="UTF-8" standalone="no"?>
<!-- Created with Inkscape (http://www.inkscape.org/) -->

<svg
   version="1.1"
   id="svg2"
   width="80.000244"
   height="79.400116"
   viewBox="0 0 80.000246 79.400116"
   sodipodi:docname="moins-wafer-orange-enabled.ai"
   xmlns:inkscape="http://www.inkscape.org/namespaces/inkscape"
   xmlns:sodipodi="http://sodipodi.sourceforge.net/DTD/sodipodi-0.dtd"
   xmlns="http://www.w3.org/2000/svg"
   xmlns:svg="http://www.w3.org/2000/svg">
  <defs
     id="defs6">
    <clipPath
       clipPathUnits="userSpaceOnUse"
       id="clipPath18">
      <path
         d="M 0,768 H 1366 V 0 H 0 Z"
         id="path16" />
    </clipPath>
  </defs>
  <sodipodi:namedview
     id="namedview4"
     pagecolor="#ffffff"
     bordercolor="#000000"
     borderopacity="0.25"
     inkscape:showpageshadow="2"
     inkscape:pageopacity="0.0"
     inkscape:pagecheckerboard="0"
     inkscape:deskcolor="#d1d1d1"
     showgrid="false" />
  <g
     id="g10"
     inkscape:groupmode="layer"
     inkscape:label="Page 1"
     transform="matrix(1.3333333,0,0,-1.3333333,-891.29874,567.5015)">
    <g
       id="g12"
       transform="matrix(1,0,0,1.0344393,0,-14.658253)">
      <g
         id="g14"
         clip-path="url(#clipPath18)">
        <g
           id="g20"
           transform="translate(686.6602,368.0586)">
          <path
             d="M 0,0 H 23.628 C 38.853,6.524 45.906,24.156 39.382,39.381 32.857,54.606 15.226,61.66 0,55.135 -15.225,48.611 -22.278,30.979 -15.754,15.754 -12.72,8.675 -7.079,3.033 0,0"
             style="fill:#e85420;fill-opacity:1;fill-rule:nonzero;stroke:none"
             id="path22" />
        </g>
        <g
           id="g24"
           transform="translate(715.7803,391.1147)">
          <path
             d="m 0,0 h -34.612 c -2.299,-0.05 -4.203,1.772 -4.253,4.071 -0.05,2.299 1.772,4.202 4.071,4.253 0.061,10e-4 0.121,10e-4 0.182,0 H 0 C 2.299,8.374 4.202,6.551 4.253,4.252 4.303,1.954 2.48,0.05 0.182,0 0.121,-0.001 0.061,-0.001 0,0"
             style="fill:#ffffff;fill-opacity:1;fill-rule:nonzero;stroke:none"
             id="path26" />
        </g>
      </g>
    </g>
  </g>
</svg>
