<?xml version="1.0" encoding="UTF-8" standalone="no"?>
<!-- Created with Inkscape (http://www.inkscape.org/) -->

<svg
   version="1.1"
   id="svg2"
   width="137.3786"
   height="193.0773"
   viewBox="0 0 137.3786 193.0773"
   sodipodi:docname="about-enabled.ai"
   xmlns:inkscape="http://www.inkscape.org/namespaces/inkscape"
   xmlns:sodipodi="http://sodipodi.sourceforge.net/DTD/sodipodi-0.dtd"
   xmlns="http://www.w3.org/2000/svg"
   xmlns:svg="http://www.w3.org/2000/svg">
  <defs
     id="defs6">
    <clipPath
       clipPathUnits="userSpaceOnUse"
       id="clipPath243">
      <g
         id="g247"
         transform="translate(-706.2344,-504.4194)">
        <path
           d="M 0,768 H 1366 V 0 H 0 Z"
           id="path245" />
      </g>
    </clipPath>
    <clipPath
       clipPathUnits="userSpaceOnUse"
       id="clipPath249">
      <g
         id="g253"
         transform="translate(-761.0801,-389.4746)">
        <path
           d="M 0,768 H 1366 V 0 H 0 Z"
           id="path251" />
      </g>
    </clipPath>
    <clipPath
       clipPathUnits="userSpaceOnUse"
       id="clipPath255">
      <g
         id="g259"
         transform="translate(-761.0801,-411.436)">
        <path
           d="M 0,768 H 1366 V 0 H 0 Z"
           id="path257" />
      </g>
    </clipPath>
    <clipPath
       clipPathUnits="userSpaceOnUse"
       id="clipPath261">
      <g
         id="g265"
         transform="translate(-761.0801,-435.0605)">
        <path
           d="M 0,768 H 1366 V 0 H 0 Z"
           id="path263" />
      </g>
    </clipPath>
    <clipPath
       clipPathUnits="userSpaceOnUse"
       id="clipPath267">
      <g
         id="g271"
         transform="translate(-761.0801,-458.6846)">
        <path
           d="M 0,768 H 1366 V 0 H 0 Z"
           id="path269" />
      </g>
    </clipPath>
    <clipPath
       clipPathUnits="userSpaceOnUse"
       id="clipPath273">
      <g
         id="g277"
         transform="translate(-761.0801,-482.3081)">
        <path
           d="M 0,768 H 1366 V 0 H 0 Z"
           id="path275" />
      </g>
    </clipPath>
  </defs>
  <sodipodi:namedview
     id="namedview4"
     pagecolor="#ffffff"
     bordercolor="#000000"
     borderopacity="0.25"
     inkscape:showpageshadow="2"
     inkscape:pageopacity="0.0"
     inkscape:pagecheckerboard="0"
     inkscape:deskcolor="#d1d1d1"
     showgrid="false" />
  <g
     id="g10"
     inkscape:groupmode="layer"
     inkscape:label="Page 1"
     transform="matrix(1.3333333,0,0,-1.3333333,-907.48051,681.34451)">
    <g
       id="g24"
       transform="translate(761.0801,482.3081)"
       clip-path="url(#clipPath273)">
      <path
         d="m 0,0 h -58.708 c -1.957,0 -3.544,1.587 -3.544,3.544 0,1.956 1.587,3.543 3.544,3.543 H 0 C 1.957,7.087 3.544,5.5 3.544,3.544 3.544,1.587 1.957,0 0,0"
         style="fill:#ffffff;fill-opacity:1;fill-rule:nonzero;stroke:none"
         id="path26" />
    </g>
    <g
       id="g28"
       transform="translate(761.0801,458.6846)"
       clip-path="url(#clipPath267)">
      <path
         d="m 0,0 h -58.708 c -1.957,0 -3.544,1.586 -3.544,3.543 0,1.958 1.587,3.544 3.544,3.544 H 0 C 1.957,7.087 3.544,5.501 3.544,3.543 3.544,1.586 1.957,0 0,0"
         style="fill:#ffffff;fill-opacity:1;fill-rule:nonzero;stroke:none"
         id="path30" />
    </g>
    <g
       id="g32"
       transform="translate(761.0801,435.0605)"
       clip-path="url(#clipPath261)">
      <path
         d="m 0,0 h -58.708 c -1.957,0 -3.544,1.586 -3.544,3.543 0,1.958 1.587,3.544 3.544,3.544 H 0 C 1.957,7.087 3.544,5.501 3.544,3.543 3.544,1.586 1.957,0 0,0"
         style="fill:#ffffff;fill-opacity:1;fill-rule:nonzero;stroke:none"
         id="path34" />
    </g>
    <g
       id="g36"
       transform="translate(761.0801,411.436)"
       clip-path="url(#clipPath255)">
      <path
         d="m 0,0 h -58.708 c -1.957,0 -3.544,1.586 -3.544,3.544 0,1.957 1.587,3.543 3.544,3.543 H 0 C 1.957,7.087 3.544,5.501 3.544,3.544 3.544,1.586 1.957,0 0,0"
         style="fill:#ffffff;fill-opacity:1;fill-rule:nonzero;stroke:none"
         id="path38" />
    </g>
    <g
       id="g40"
       transform="translate(761.0801,389.4746)"
       clip-path="url(#clipPath249)">
      <path
         d="m 0,0 h -58.708 c -1.957,0 -3.544,1.586 -3.544,3.543 0,1.958 1.587,3.544 3.544,3.544 H 0 C 1.957,7.087 3.544,5.501 3.544,3.543 3.544,1.586 1.957,0 0,0"
         style="fill:#ffffff;fill-opacity:1;fill-rule:nonzero;stroke:none"
         id="path42" />
    </g>
    <g
       id="g44"
       transform="translate(706.2344,504.4194)"
       clip-path="url(#clipPath243)">
      <path
         d="m 0,0 c -10.496,0 -19.035,-8.54 -19.035,-19.036 v -93.558 c 0,-10.496 8.539,-19.036 19.035,-19.036 h 51.787 c 10.496,0 19.034,8.54 19.034,19.036 v 93.558 C 70.821,-8.54 62.283,0 51.787,0 Z M 51.787,-138.219 H 0 c -14.129,0 -25.624,11.495 -25.624,25.625 v 93.558 c 0,14.129 11.495,25.625 25.624,25.625 h 51.787 c 14.13,0 25.623,-11.496 25.623,-25.625 v -93.558 c 0,-14.13 -11.493,-25.625 -25.623,-25.625"
         style="fill:#ffffff;fill-opacity:1;fill-rule:nonzero;stroke:none"
         id="path46" />
    </g>
  </g>
</svg>
