<?xml version="1.0" encoding="UTF-8" standalone="no"?>
<!-- Created with Inkscape (http://www.inkscape.org/) -->

<svg
   version="1.1"
   id="svg2"
   width="110"
   height="110"
   viewBox="0 0 110 110"
   sodipodi:docname="temperature.svg"
   inkscape:version="1.2.2 (b0a8486541, 2022-12-01)"
   xmlns:inkscape="http://www.inkscape.org/namespaces/inkscape"
   xmlns:sodipodi="http://sodipodi.sourceforge.net/DTD/sodipodi-0.dtd"
   xmlns="http://www.w3.org/2000/svg"
   xmlns:svg="http://www.w3.org/2000/svg">
  <sodipodi:namedview
     id="namedview12"
     pagecolor="#ffffff"
     bordercolor="#000000"
     borderopacity="0.25"
     inkscape:showpageshadow="2"
     inkscape:pageopacity="0.0"
     inkscape:pagecheckerboard="0"
     inkscape:deskcolor="#d1d1d1"
     showgrid="false"
     showguides="true"
     inkscape:zoom="10.639927"
     inkscape:cx="56.203394"
     inkscape:cy="26.926877"
     inkscape:window-width="1920"
     inkscape:window-height="1008"
     inkscape:window-x="0"
     inkscape:window-y="0"
     inkscape:window-maximized="1"
     inkscape:current-layer="svg2">
    <sodipodi:guide
       position="54.827736,119.76931"
       orientation="1,0"
       id="guide118"
       inkscape:locked="false" />
  </sodipodi:namedview>
  <defs
     id="defs6">
    <clipPath
       clipPathUnits="userSpaceOnUse"
       id="clipPath34">
      <path
         d="M 0,768 H 1366 V 0 H 0 Z"
         id="path32" />
    </clipPath>
  </defs>
  <g
     id="g10"
     transform="matrix(1.3333333,0,0,-1.3333333,-853.42853,530.69864)">
    <g
       id="g28">
      <g
         id="g30"
         clip-path="url(#clipPath34)">
        <path
           d="m 683.456,388.144 h -4.454 v 1.377 h 4.454 z m 0,-6.886 h -4.454 v 1.378 h 4.454 z m 0,-6.886 h -4.454 v 1.377 h 4.454 z m 0,-6.886 h -4.454 v 1.377 h 4.454 z m 0,-6.886 h -4.454 v 1.377 h 4.454 z m 0,-6.886 h -4.454 v 1.377 h 4.454 z m 0,-6.886 h -4.454 v 1.377 h 4.454 z m 0,-6.887 h -4.454 v 1.377 h 4.454 z m 1.561,-4.119 v 54.695 c 0,2.091 -1.696,3.787 -3.788,3.787 -2.092,0 -3.787,-1.696 -3.787,-3.787 v -54.696 c -2.807,-1.395 -4.74,-4.284 -4.74,-7.631 0,-4.709 3.818,-8.527 8.527,-8.527 4.709,0 8.527,3.818 8.527,8.527 0,3.347 -1.933,6.236 -4.739,7.632"
           style="fill:#ffffff;fill-opacity:1;fill-rule:nonzero;stroke:none"
           id="path36" />
        <g
           id="g38"
           transform="translate(681.229,317.083)">
          <path
             d="m 0,0 c -5.854,0 -10.616,4.763 -10.616,10.616 0,3.719 1.894,7.103 5.066,9.053 0,0 0.364,0.149 0.364,0.627 v 53.895 c 0,2.895 2.327,5.25 5.186,5.25 2.86,0 5.186,-2.355 5.186,-5.25 V 20.302 c 0,-0.478 0.362,-0.632 0.362,-0.632 3.174,-1.949 5.069,-5.334 5.069,-9.054 C 10.617,4.763 5.854,0 0,0 m 6.686,20.699 v 53.492 c 0,3.723 -2.999,6.75 -6.686,6.75 -3.687,0 -6.686,-3.027 -6.686,-6.75 V 20.699 c -3.4,-2.255 -5.43,-5.983 -5.43,-10.083 0,-6.68 5.435,-12.116 12.116,-12.116 6.681,0 12.117,5.436 12.117,12.116 0,4.101 -2.031,7.828 -5.431,10.083"
             style="fill:#ffffff;fill-opacity:1;fill-rule:nonzero;stroke:none"
             id="path40" />
        </g>
      </g>
    </g>
  </g>
</svg>
